<svg xmlns="http://www.w3.org/2000/svg">
	<symbol id="svg-correct" viewBox="0 0 460 460">
		<path fill-rule="evenodd" d="M196,324C205,333 220,332 227,321L327,161C333,151 330,139 321,133C311,127 299,130 293,139L206,278L164,236C156,228 144,228 136,236C128,244 128,256 136,264L196,324ZM230,460C357,460 460,357 460,230C460,103 357,0 230,0C103,0 0,103 0,230C0,357 103,460 230,460Z"/>
	</symbol>
	<symbol id="svg-error" viewBox="0 0 460 460">
		<path fill-rule="evenodd" d="M393,67C303-22 157-22 67,67C-22,157-22,303 67,393C157,482 303,482 393,393C482,303 482,157 393,67ZM321,321C314,328 303,328 296,321L230,255L161,324C154,331 143,331 136,324C129,317 129,306 136,299L205,230L139,164C132,157 132,146 139,139C146,132 157,132 164,139L230,205L293,142C300,135 311,135 318,142C325,149 325,161 318,167L255,230L321,296C328,303 328,314 321,321Z"/>
	</symbol>
	<symbol id="svg-facebook" viewBox="0 0 96 96">
		<path d="M72,0L60,0C46,0,37,9,37,24v11H24c-1,0-2,1-2,2v16 c0,1,1,2,2,2h13v40c0,1,1,2,2,2h16c1,0,2-1,2-2V54h15 c1,0,2-1,2-2l0-16c0-1,0-1-1-1c0,0-1-1-1-1H57v-9 c0-4,1-7,7-7l8,0c1,0,2-1,2-2V2C74,1,73,0,72,0z"/>
	</symbol>
	<symbol id="svg-google" viewBox="0 96 512 416">
		<polygon points="448,224 448,160 416,160 416,224 352,224 352,256 416,256 416,320 448,320 448,256 512,256 512,224"/>
		<path d="M160,224v64h91c-13,37-49,64-91,64c-53,0-96-43-96-96c0-53,43-96,96-96c23,0,45,8,62,23l42-48C235,110,198,96,160,96C72,96,0,168,0,256s72,160,160,160s160-72,160-160v-32H160z"/>
	</symbol>
	<symbol id="svg-linkedin" viewBox="0 0 439 439">
		<rect x="5" y="146" width="94" height="283"/>
		<path d="M409,172c-20-22-46-32-78-32c-12,0-23,2-33,4c-10,3-18,7-25,12c-7,5-12,10-16,15c-4,4-7,9-11,15v-40h-94l0,14c0,9,0,37,0,85c0,47,0,109-1,185h94V271c0-10,1-17,3-23c4-10,10-18,18-24c8-7,18-10,30-10c16,0,28,6,36,17c8,11,12,27,12,47V429h94V267C439,225,429,193,409,172zM53,10c-16,0-29,5-38,14C5,33,0,44,0,59c0,14,5,26,14,35 c10,9,22,14,38,14h1c16,0,29-5,39-14c10-9,15-21,14-35 c0-14-5-26-15-35C82,14,69,10,53,10z"/>
	</symbol>
	<symbol id="svg-twitter" viewBox="0 0 612 612">
		<path d="M612,116c-23,10-47,17-72,20c26-16,46-40,55-69c-24,14-51,25-80,30c-23-24-55-40-92-40c-69,0-126,56-126,126c0,10,1,19,3,29C197,206,105,156,43,80c-11,19-17,40-17,63c0,44,22,82,56,104c-21-1-40-6-57-16v2c0,61,43,112,101,123c-11,3-22,4-33,4c-8,0-16-1-24-2c16,50,62,86,117,87c-43,34-97,54-156,54c-10,0-20-1-30-2c56,36,122,56,192,56c231,0,357-191,357-357l0-16C574,164,595,141,612,116z"/>
	</symbol>
	<symbol id="svg-windows" viewBox="0 0 480 480">
    <path d="M0,224L0,68l192-26V224H0zM224,37L480,0v224H224V37zM480,256l-0,224 l-256-36V256H480z M192,440L0,414L0,256h192V440z"/>
	</symbol>
	<symbol id="svg-vk" viewBox="0 0 512 512">
		<path d="M507,371c-1-2-10-21-51-59c-43-40-37-33,15-102c32-42,44-67,40-78c-4-10-27-8-27-8l-77,0c0,0-6-1-10,2c-4,3-7,8-7,8s-12,32-28,60c-34,58-48,61-54,58c-13-8-10-34-10-52c0-56,9-80-17-86c-8-2-14-3-36-4c-27,0-51,0-64,7c-9,4-15,14-11,14c5,1,17,3,23,11c8,11,8,35,8,35s5,66-11,75c-10,6-25-6-55-59c-16-27-27-57-27-57s-2-6-6-8c-5-4-12-5-12-5l-73,0c0,0-11,0-15,5c-4,4,0,13,0,13s57,134,122,202c60,62,127,58,127,58h31c0,0,9-1,14-6c4-5,4-13,4-13s-1-41,19-47c19-6,43,40,69,57c19,13,34,10,34,10l68-1C489,401,524,399,507,371z"/>
	</symbol>
	<symbol id="svg-upload" viewBox="0 0 16 16">
  		<path fill="currentColor" d="M14.717,16 L1.283,16 C0.575,16 0,15.426 0,14.717 L0,10.157 C0,9.449 0.575,8.874 1.283,8.874 C1.992,8.874 2.567,9.449 2.567,10.157 L2.567,13.434 L13.433,13.434 L13.433,10.157 C13.433,9.449 14.008,8.874 14.717,8.874 C15.425,8.874 16,9.449 16,10.157 L16,14.717 C16,15.426 15.425,16 14.717,16 ZM11.624,6.188 C11.295,6.188 10.967,6.063 10.716,5.812 L9.283,4.380 L9.283,9.161 C9.283,9.869 8.709,10.444 8,10.444 C7.291,10.444 6.717,9.869 6.717,9.161 L6.717,4.380 L5.284,5.812 C4.783,6.314 3.970,6.314 3.469,5.812 C2.968,5.311 2.968,4.499 3.469,3.998 L7.092,0.375 C7.594,-0.126 8.406,-0.126 8.908,0.375 L12.531,3.998 C13.032,4.499 13.032,5.311 12.531,5.812 C12.280,6.063 11.952,6.188 11.624,6.188 Z"/>
	</symbol>
</svg>